<svg width="265" height="135" viewBox="0 0 265 135" fill="none" xmlns="http://www.w3.org/2000/svg">
<path d="M26.5 7H59L77.5337 76M87 111L77.5337 76M77.5337 76C71.6891 64.5 56.6 48.4 43 76C29.4 103.6 20.6667 110.833 16.5 111H4" stroke="black" stroke-width="7" stroke-linecap="round"/>
<path d="M79 4L107.286 111H138.5" stroke="black" stroke-width="7" stroke-linecap="round" stroke-linejoin="round"/>
<path d="M172.348 98.348C172.348 99.596 172.313 100.549 172.244 101.208H148.688C148.792 103.357 149.312 105.195 150.248 106.72C151.184 108.245 152.415 109.407 153.94 110.204C155.465 110.967 157.129 111.348 158.932 111.348C161.289 111.348 163.265 110.776 164.86 109.632C166.489 108.488 167.564 106.945 168.084 105.004H171.932C171.239 107.777 169.748 110.048 167.46 111.816C165.207 113.549 162.364 114.416 158.932 114.416C156.263 114.416 153.871 113.827 151.756 112.648C149.641 111.435 147.977 109.736 146.764 107.552C145.585 105.333 144.996 102.751 144.996 99.804C144.996 96.8573 145.585 94.2747 146.764 92.056C147.943 89.8373 149.589 88.1387 151.704 86.96C153.819 85.7813 156.228 85.192 158.932 85.192C161.636 85.192 163.993 85.7813 166.004 86.96C168.049 88.1387 169.609 89.7333 170.684 91.744C171.793 93.72 172.348 95.9213 172.348 98.348ZM168.656 98.244C168.691 96.1293 168.257 94.3267 167.356 92.836C166.489 91.3453 165.293 90.2187 163.768 89.456C162.243 88.6933 160.579 88.312 158.776 88.312C156.072 88.312 153.767 89.1787 151.86 90.912C149.953 92.6453 148.896 95.0893 148.688 98.244H168.656ZM177.084 99.648C177.084 96.736 177.673 94.188 178.852 92.004C180.03 89.7853 181.642 88.0693 183.688 86.856C185.768 85.6427 188.073 85.036 190.604 85.036C193.1 85.036 195.266 85.5733 197.104 86.648C198.941 87.7227 200.31 89.0747 201.212 90.704V85.504H205.996V114H201.212V108.696C200.276 110.36 198.872 111.747 197 112.856C195.162 113.931 193.013 114.468 190.552 114.468C188.021 114.468 185.733 113.844 183.688 112.596C181.642 111.348 180.03 109.597 178.852 107.344C177.673 105.091 177.084 102.525 177.084 99.648ZM201.212 99.7C201.212 97.5507 200.778 95.6787 199.912 94.084C199.045 92.4893 197.866 91.276 196.376 90.444C194.92 89.5773 193.308 89.144 191.54 89.144C189.772 89.144 188.16 89.56 186.704 90.392C185.248 91.224 184.086 92.4373 183.22 94.032C182.353 95.6267 181.92 97.4987 181.92 99.648C181.92 101.832 182.353 103.739 183.22 105.368C184.086 106.963 185.248 108.193 186.704 109.06C188.16 109.892 189.772 110.308 191.54 110.308C193.308 110.308 194.92 109.892 196.376 109.06C197.866 108.193 199.045 106.963 199.912 105.368C200.778 103.739 201.212 101.849 201.212 99.7ZM219.816 89.508C220.683 88.052 221.827 86.9253 223.248 86.128C224.704 85.296 226.42 84.88 228.396 84.88V91.016H226.888C224.566 91.016 222.798 91.6053 221.584 92.784C220.406 93.9627 219.816 96.008 219.816 98.92V114H213.888V85.348H219.816V89.508ZM249.497 84.776C252.929 84.776 255.703 85.868 257.817 88.052C259.932 90.2013 260.989 93.2173 260.989 97.1V114H253.709V98.088C253.709 95.8 253.137 94.0493 251.993 92.836C250.849 91.588 249.289 90.964 247.313 90.964C245.303 90.964 243.708 91.588 242.529 92.836C241.385 94.0493 240.813 95.8 240.813 98.088V114H233.533V85.192H240.813V88.78C241.784 87.532 243.015 86.5613 244.505 85.868C246.031 85.14 247.695 84.776 249.497 84.776Z" fill="black"/>
</svg>
